<svg width="879" height="173" viewBox="0 0 879 173" fill="none" xmlns="http://www.w3.org/2000/svg">
<path d="M65.8892 11.8955C65.8892 2.37909 56.8175 0 49.6556 0V1.42746C53.9527 1.42746 57.2949 2.85491 57.2949 6.18564C57.2949 8.08892 55.8626 10.9438 51.5655 10.9438C48.2232 10.9438 41.0614 9.04055 35.8093 7.13728C29.6024 4.75819 23.8729 2.85491 19.0983 2.85491C9.54916 2.85491 2.86475 9.99219 2.86475 18.0811C2.86475 25.2184 8.11678 27.5975 10.0266 28.5491L10.5041 27.5975C9.54916 26.6458 8.11679 25.6942 8.11679 22.8393C8.11679 20.936 10.0266 17.6053 14.8012 17.6053C19.0983 17.6053 24.8278 19.5086 32.4671 21.8877C39.1515 23.7909 46.3134 25.2184 50.1331 25.6942V40.4446L42.9712 46.6302V47.106L50.1331 53.2917V73.7519C46.3134 76.131 42.0163 76.6068 38.1966 76.6068C31.0348 76.6068 24.8278 74.7035 19.5758 68.9937L39.1515 59.4773V26.6458L15.2787 37.1138C17.1885 30.9282 22.4405 26.6458 27.6926 23.7909L27.2151 22.3635C12.8914 26.17 0 39.4929 0 55.6708C0 74.7035 15.7561 88.9781 33.4221 88.9781C52.5204 88.9781 64.9343 73.7519 64.9343 58.0499H63.9794C61.1146 64.2355 56.8175 69.9453 51.5655 72.8002V53.2917L59.2048 47.106V46.6302L51.5655 40.4446V25.6942C58.7273 25.6942 65.8892 20.936 65.8892 11.8955ZM24.3504 64.2355L18.6209 67.0904C15.2787 62.8081 13.3688 57.0982 13.3688 49.0093C13.3688 45.6786 13.3688 41.872 14.3237 39.0171L24.3504 34.7347V64.2355ZM74.9609 75.1793L68.7539 79.9375L69.7089 80.8892L72.5736 78.5101L83.0777 88.0264L97.4014 78.5101L96.924 77.5584L93.1043 79.9375L88.3297 75.1793V42.8237L92.1494 39.9688L100.266 46.6302V75.6551C100.266 93.7362 96.4465 96.5912 88.3297 99.4461V100.874C101.699 101.349 114.112 97.067 114.112 73.7519V42.3479L118.41 39.0171L117.455 38.0655L113.635 40.9204L101.699 30.9282L88.3297 40.9204V1.90327H87.3748L70.6638 13.3229V14.2746C72.5736 15.2262 75.4383 16.1778 75.4383 21.4118L74.9609 75.1793ZM162.336 69.9453L150.399 78.9859L138.463 69.4695V63.7597L160.903 48.5335V48.0577L149.444 30.9282L124.617 44.2511V75.6551L119.842 79.4617L120.797 80.4133L125.094 77.0826L141.328 88.9781L162.813 71.8486L162.336 69.9453ZM138.463 61.8564V38.5413L139.418 38.0655L149.922 54.7191L138.463 61.8564ZM253.53 7.6131C253.53 6.18564 253.053 4.75819 252.575 3.33073H251.62C250.188 7.13728 248.278 9.04055 243.504 9.04055C239.206 9.04055 236.342 6.66146 234.432 4.75819L220.586 20.4602L221.54 21.4118L226.315 17.1295C229.18 19.5086 231.567 21.4118 238.251 21.8877V61.3806L210.081 13.3229C207.694 9.51637 204.352 4.28237 197.668 4.28237C190.028 4.28237 183.344 10.9438 184.299 21.4118H185.731C186.209 18.5569 187.641 15.2262 190.983 15.2262C193.37 15.2262 195.758 17.6053 197.19 19.9844V35.6864C188.596 35.6864 182.866 39.4929 182.866 46.6302C182.866 50.4368 184.776 56.1466 190.506 57.574V56.6224C189.551 55.6708 189.073 54.7191 189.073 53.2917C189.073 50.9126 190.983 49.0093 194.325 49.0093H196.713V68.9937C186.686 68.9937 178.569 74.7035 178.569 84.2199C178.569 93.2604 186.209 97.5428 194.803 97.067V96.1153C189.551 95.6395 187.164 93.2604 187.164 89.9297C187.164 85.6473 190.028 83.7441 193.848 83.7441C197.668 83.7441 201.01 86.1232 203.397 88.9781L217.243 73.7519L216.288 72.8002L212.946 76.6068C207.694 71.8486 204.829 70.4211 198.622 69.4695V21.8877L236.819 88.5022H239.684V21.8877C246.846 21.4118 253.53 15.702 253.53 7.6131ZM288.385 69.9453L276.448 78.9859L264.512 69.4695V63.7597L286.952 48.5335V48.0577L275.493 30.9282L250.665 44.2511V75.6551L245.891 79.4617L246.846 80.4133L251.143 77.0826L267.376 88.9781L288.862 71.8486L288.385 69.9453ZM264.512 61.8564V38.5413L265.467 38.0655L275.971 54.7191L264.512 61.8564ZM366.21 36.1622L362.868 38.5413L353.796 30.9282L343.292 40.4446L347.589 44.7269V80.4133L336.13 73.2761V43.7753L339.95 41.3962L328.969 30.9282L318.464 40.4446L322.762 44.7269V78.9859L321.329 79.9375L311.303 72.8002V44.2511C311.303 37.5897 307.96 35.6864 304.141 33.3073C300.798 30.9282 298.889 29.5008 298.889 26.17C298.889 23.3151 301.753 21.8877 303.186 20.936V19.9844C299.366 19.9844 289.339 23.7909 289.339 32.8315C289.339 37.5897 291.727 39.4929 294.114 41.872C296.501 44.2511 298.889 46.1544 298.889 50.4368V78.0342L293.637 81.8408L294.592 82.7924L299.366 78.9859L310.348 88.5022L322.284 80.4133L335.653 88.5022L360.958 73.7519V41.872L367.165 37.1138L366.21 36.1622ZM455.017 9.99219L450.243 14.2746L439.739 4.75819L423.983 16.1778V5.70982H422.55L423.028 82.7924C421.595 82.7924 417.298 81.8408 413.956 80.8892L413.001 16.6536C413.001 11.8955 409.659 5.234 401.065 5.234C392.47 5.234 386.741 11.8955 386.741 18.5569H388.173C388.651 15.702 390.083 13.3229 392.948 13.3229C395.813 13.3229 398.2 15.2262 398.2 21.4118V39.9688C389.606 40.4446 384.354 45.2028 384.354 51.3884C384.354 55.195 386.263 60.9048 391.993 60.9048V59.9531C390.083 59.0015 389.606 57.574 389.606 56.6224C389.606 53.7675 391.993 52.8159 395.813 52.8159H397.722V82.3166C390.561 84.6957 387.696 89.9297 387.696 95.6395C387.696 103.728 393.903 109.438 403.452 109.438C410.136 109.438 415.866 108.487 421.595 107.059C426.37 106.108 432.577 104.68 435.442 104.68C439.261 104.68 440.694 106.583 440.694 108.962C440.694 112.293 439.261 113.721 437.351 114.196V115.148C444.991 113.721 449.765 108.962 449.765 101.825C449.765 94.6879 442.603 90.4055 434.964 90.4055C431.144 90.4055 423.028 91.833 417.298 92.7846C410.614 94.2121 403.929 95.1637 402.02 95.1637C398.677 95.1637 394.858 93.7363 394.858 88.9781C394.858 85.1715 398.2 81.8408 406.317 81.8408C410.614 81.8408 415.866 82.3166 421.118 83.7441C426.847 85.1715 432.099 86.599 436.874 86.599C444.036 86.599 450.243 84.2199 450.243 74.2277V15.702L455.972 10.9438L455.017 9.99219ZM435.442 39.0171C434.009 40.4446 432.099 41.872 429.712 41.872C427.325 41.872 424.938 40.4446 423.983 39.0171V18.0811L428.757 14.7504L435.442 20.936V39.0171ZM435.442 53.2917C434.487 52.34 432.099 50.9126 429.712 50.9126C427.325 50.9126 424.938 52.34 423.983 53.2917V40.9204C424.938 41.872 427.325 43.2995 429.712 43.2995C432.099 43.2995 434.487 41.872 435.442 40.9204V53.2917ZM435.442 75.6551C435.442 79.4617 433.054 83.2682 427.802 83.2682H423.983V55.195C424.938 54.2433 427.325 52.8159 429.712 52.8159C432.099 52.8159 434.009 54.2433 435.442 55.195V75.6551ZM500.853 41.872L485.575 30.9282L462.179 44.2511V75.1793L457.405 78.9859L457.882 79.9375L461.702 77.0826L476.98 88.5022L500.853 74.2277V41.872ZM475.071 71.8486V37.5897L487.007 46.1544V79.9375L475.071 71.8486ZM546.212 31.8798H545.257C543.825 32.8315 542.392 33.7831 540.96 33.7831C539.05 33.7831 536.663 32.8315 535.708 31.404H534.753L526.636 40.4446L518.519 31.404L504.196 40.9204L504.673 41.872L508.493 39.4929L513.267 44.7269V74.7035L507.06 79.4617L508.015 80.4133L510.88 78.0342L522.339 87.5506L537.14 77.5584L536.663 76.6068L532.366 78.9859L526.636 74.2277V40.9204C529.023 43.2995 531.888 45.6786 535.23 45.6786C541.915 46.1544 545.734 39.4929 546.212 31.8798ZM603.507 77.5584L587.273 88.5022L565.31 55.195L581.066 30.9282H582.021C583.931 32.8315 586.796 34.7347 590.138 34.7347C593.48 34.7347 595.867 32.8315 597.3 30.9282H598.255C597.777 40.4446 591.093 46.1544 586.318 46.1544C581.544 46.1544 579.156 43.7753 576.292 42.3479L574.859 44.7269L598.732 79.9375L603.507 77.0826V77.5584ZM550.986 75.1793L544.779 79.9375L545.734 80.8892L548.599 78.5101L559.103 88.0264L573.427 78.5101L572.472 77.5584L568.652 79.9375L563.878 75.1793V1.90327H563.4L546.212 13.3229V14.2746C548.122 15.2262 550.986 15.702 550.986 21.4118V75.1793ZM682.765 11.8955C682.765 2.37909 673.693 0 666.531 0V1.42746C670.828 1.42746 674.171 2.85491 674.171 6.18564C674.171 8.08892 672.738 10.9438 668.441 10.9438C665.099 10.9438 657.937 9.04055 652.685 7.13728C646.478 5.234 640.748 3.33073 635.974 3.33073C626.425 3.33073 619.74 10.468 619.74 18.5569C619.74 25.6942 624.992 28.0733 626.902 29.0249L627.38 28.0733C625.947 27.1217 624.515 26.17 624.515 23.3151C624.515 21.4118 626.425 18.0811 631.199 18.0811C635.496 18.0811 641.226 19.9844 648.865 22.3635C655.55 24.2667 662.712 25.6942 666.531 26.17V40.9204L659.369 47.106V47.5819L666.531 53.7675V74.2277C662.712 76.6068 658.414 77.0826 654.595 77.0826C647.433 77.0826 641.226 75.1793 635.974 69.4695L655.55 59.9531V26.6458L631.677 37.1138C634.064 30.9282 639.316 26.6458 644.091 23.3151L643.613 22.3635C629.29 26.17 616.398 39.0171 616.398 55.195C616.398 74.2277 632.154 88.5022 649.82 88.5022C668.919 88.5022 681.332 73.2761 681.332 57.574H680.378C677.513 63.7597 673.216 69.4695 667.964 72.3244V52.8159L675.603 46.6302V46.1544L668.441 39.9688V25.6942C675.603 25.6942 682.765 20.936 682.765 11.8955ZM641.226 64.2355L635.497 67.0904C632.154 62.8081 630.244 57.0982 630.244 49.0093C630.244 45.6786 630.722 41.872 631.677 39.0171L641.703 34.7347L641.226 64.2355ZM699.476 7.13728H698.998L689.449 15.2262V15.702L697.566 24.7426H698.521L708.07 16.6536V16.1778L699.476 7.13728ZM713.8 77.5584L709.98 79.9375L705.205 75.1793V42.3479L709.98 39.0171L709.025 38.0655L705.683 40.9204L697.089 30.9282L683.242 40.4446L684.197 41.872L687.539 39.4929L691.836 44.7269V75.6551L685.63 80.4133L686.107 81.365L689.449 78.9859L699.953 88.5022L714.277 78.9859L713.8 77.5584ZM793.535 77.0826L790.193 79.4617L784.941 74.7035V42.3479L789.715 38.5413L788.76 37.5897L784.941 40.9204L773.959 30.9282L759.636 40.9204L748.654 30.9282L735.285 40.9204L726.691 30.9282L712.845 40.4446L713.322 41.872L716.664 39.4929L721.439 44.7269V75.6551L717.619 79.4617L728.601 88.5022L739.105 78.9859L734.808 74.7035V42.3479L739.105 39.4929L746.267 46.1544V74.7035L742.447 78.5101L753.429 87.5506L763.933 78.0342L759.636 73.7519V42.3479L763.455 39.9688L771.095 46.6302V75.1793L767.752 78.5101L778.734 88.5022L793.535 78.5101V77.0826ZM835.074 69.9453L823.137 78.9859L811.201 69.4695V63.7597L833.642 48.5335V48.0577L822.182 30.9282L797.355 44.2511V76.6068L814.066 88.5022L835.551 71.3728L835.074 69.9453ZM811.201 61.8564V38.5413L812.156 38.0655L822.66 54.7191L811.201 61.8564ZM878.523 57.574L869.451 50.4368C875.658 45.2028 878.045 38.0655 878.045 33.3073V30.4524H877.09C876.135 32.8315 874.225 35.2106 870.406 35.2106C866.586 35.2106 864.199 33.3073 861.812 30.4524L840.326 42.3479V59.4773L848.443 65.663C840.326 72.8002 838.893 77.5584 838.893 81.365C838.893 86.1232 841.281 89.4539 845.101 90.8813L845.578 89.9297C844.623 88.9781 843.668 88.5022 843.668 86.1232C843.668 84.6957 845.578 82.3166 849.398 82.3166C854.172 82.3166 857.037 85.6473 858.469 87.0748L879 74.7035V57.574H878.523ZM873.271 43.2995C869.928 49.0093 862.766 54.7191 858.469 57.574L853.217 53.2917V36.638C855.127 41.3962 860.379 45.2028 865.631 45.2028C868.973 45.2028 870.883 44.7269 873.271 43.2995ZM865.154 81.365C862.766 76.131 857.037 72.3244 851.307 72.3244C849.875 72.3244 846.055 72.3244 842.236 74.7035C844.623 70.897 850.83 64.2355 858.947 59.4773L864.676 64.2355L865.154 81.365Z" fill="white"/>
<path d="M314.781 172V140H327.594C329.948 140 331.911 140.349 333.484 141.047C335.057 141.745 336.24 142.714 337.031 143.953C337.823 145.182 338.219 146.599 338.219 148.203C338.219 149.453 337.969 150.552 337.469 151.5C336.969 152.437 336.281 153.208 335.406 153.812C334.542 154.406 333.552 154.828 332.438 155.078V155.391C333.656 155.443 334.797 155.786 335.859 156.422C336.932 157.057 337.802 157.948 338.469 159.094C339.135 160.229 339.469 161.583 339.469 163.156C339.469 164.854 339.047 166.37 338.203 167.703C337.37 169.026 336.135 170.073 334.5 170.844C332.865 171.615 330.849 172 328.453 172H314.781ZM321.547 166.469H327.062C328.948 166.469 330.323 166.109 331.188 165.391C332.052 164.661 332.484 163.693 332.484 162.484C332.484 161.599 332.271 160.818 331.844 160.141C331.417 159.464 330.807 158.932 330.016 158.547C329.234 158.161 328.302 157.969 327.219 157.969H321.547V166.469ZM321.547 153.391H326.562C327.49 153.391 328.312 153.229 329.031 152.906C329.76 152.573 330.333 152.104 330.75 151.5C331.177 150.896 331.391 150.172 331.391 149.328C331.391 148.172 330.979 147.24 330.156 146.531C329.344 145.823 328.187 145.469 326.688 145.469H321.547V153.391Z" fill="#FFA500"/>
<path d="M354.684 172.469C352.215 172.469 350.09 171.969 348.309 170.969C346.538 169.958 345.173 168.531 344.215 166.688C343.257 164.833 342.777 162.641 342.777 160.109C342.777 157.641 343.257 155.474 344.215 153.609C345.173 151.745 346.522 150.292 348.262 149.25C350.012 148.208 352.064 147.688 354.418 147.688C356.001 147.688 357.475 147.943 358.84 148.453C360.215 148.953 361.413 149.708 362.434 150.719C363.465 151.729 364.267 153 364.84 154.531C365.413 156.052 365.699 157.833 365.699 159.875V161.703H345.434V157.578H359.434C359.434 156.62 359.225 155.771 358.809 155.031C358.392 154.292 357.814 153.714 357.074 153.297C356.345 152.87 355.496 152.656 354.527 152.656C353.517 152.656 352.621 152.891 351.84 153.359C351.069 153.818 350.465 154.437 350.027 155.219C349.59 155.99 349.366 156.849 349.355 157.797V161.719C349.355 162.906 349.574 163.932 350.012 164.797C350.46 165.661 351.09 166.328 351.902 166.797C352.715 167.266 353.678 167.5 354.793 167.5C355.533 167.5 356.21 167.396 356.824 167.188C357.439 166.979 357.965 166.667 358.402 166.25C358.84 165.833 359.173 165.323 359.402 164.719L365.559 165.125C365.246 166.604 364.605 167.896 363.637 169C362.678 170.094 361.439 170.948 359.918 171.562C358.408 172.167 356.663 172.469 354.684 172.469Z" fill="#FFA500"/>
<path d="M390.012 154.844L383.918 155.219C383.814 154.698 383.59 154.229 383.246 153.812C382.902 153.385 382.449 153.047 381.887 152.797C381.335 152.536 380.673 152.406 379.902 152.406C378.871 152.406 378.001 152.625 377.293 153.062C376.585 153.49 376.23 154.062 376.23 154.781C376.23 155.354 376.46 155.839 376.918 156.234C377.376 156.63 378.163 156.948 379.277 157.188L383.621 158.062C385.954 158.542 387.694 159.312 388.84 160.375C389.986 161.438 390.559 162.833 390.559 164.562C390.559 166.135 390.095 167.516 389.168 168.703C388.251 169.891 386.991 170.818 385.387 171.484C383.793 172.141 381.954 172.469 379.871 172.469C376.694 172.469 374.163 171.807 372.277 170.484C370.402 169.151 369.303 167.339 368.98 165.047L375.527 164.703C375.725 165.672 376.204 166.411 376.965 166.922C377.725 167.422 378.699 167.672 379.887 167.672C381.053 167.672 381.991 167.448 382.699 167C383.418 166.542 383.783 165.953 383.793 165.234C383.783 164.63 383.527 164.135 383.027 163.75C382.527 163.354 381.757 163.052 380.715 162.844L376.559 162.016C374.215 161.547 372.47 160.734 371.324 159.578C370.189 158.422 369.621 156.948 369.621 155.156C369.621 153.615 370.038 152.286 370.871 151.172C371.715 150.057 372.897 149.198 374.418 148.594C375.949 147.99 377.741 147.688 379.793 147.688C382.824 147.688 385.21 148.328 386.949 149.609C388.699 150.891 389.72 152.635 390.012 154.844Z" fill="#FFA500"/>
<path d="M407.516 148V153H393.062V148H407.516ZM396.344 142.25H403V164.625C403 165.24 403.094 165.719 403.281 166.062C403.469 166.396 403.729 166.63 404.062 166.766C404.406 166.901 404.802 166.969 405.25 166.969C405.562 166.969 405.875 166.943 406.188 166.891C406.5 166.828 406.74 166.781 406.906 166.75L407.953 171.703C407.62 171.807 407.151 171.927 406.547 172.062C405.943 172.208 405.208 172.297 404.344 172.328C402.74 172.391 401.333 172.177 400.125 171.688C398.927 171.198 397.995 170.438 397.328 169.406C396.661 168.375 396.333 167.073 396.344 165.5V142.25Z" fill="#FFA500"/>
<path d="M439.52 149.203C439.395 147.943 438.858 146.964 437.91 146.266C436.962 145.568 435.676 145.219 434.051 145.219C432.947 145.219 432.014 145.375 431.254 145.688C430.493 145.99 429.91 146.411 429.504 146.953C429.108 147.495 428.91 148.109 428.91 148.797C428.889 149.37 429.009 149.87 429.27 150.297C429.54 150.724 429.91 151.094 430.379 151.406C430.848 151.708 431.389 151.974 432.004 152.203C432.618 152.422 433.275 152.609 433.973 152.766L436.848 153.453C438.243 153.766 439.525 154.182 440.691 154.703C441.858 155.224 442.868 155.865 443.723 156.625C444.577 157.385 445.238 158.281 445.707 159.312C446.186 160.344 446.431 161.526 446.441 162.859C446.431 164.818 445.931 166.516 444.941 167.953C443.962 169.38 442.546 170.49 440.691 171.281C438.848 172.063 436.624 172.453 434.02 172.453C431.436 172.453 429.186 172.057 427.27 171.266C425.363 170.474 423.874 169.302 422.801 167.75C421.738 166.188 421.181 164.255 421.129 161.953H427.676C427.749 163.026 428.056 163.922 428.598 164.641C429.15 165.349 429.884 165.885 430.801 166.25C431.728 166.604 432.775 166.781 433.941 166.781C435.087 166.781 436.082 166.615 436.926 166.281C437.78 165.948 438.441 165.484 438.91 164.891C439.379 164.297 439.613 163.615 439.613 162.844C439.613 162.125 439.4 161.521 438.973 161.031C438.556 160.542 437.941 160.125 437.129 159.781C436.327 159.438 435.342 159.125 434.176 158.844L430.691 157.969C427.993 157.313 425.863 156.286 424.301 154.891C422.738 153.495 421.962 151.615 421.973 149.25C421.962 147.313 422.478 145.62 423.52 144.172C424.572 142.724 426.014 141.594 427.848 140.781C429.681 139.969 431.764 139.562 434.098 139.562C436.473 139.562 438.546 139.969 440.316 140.781C442.098 141.594 443.483 142.724 444.473 144.172C445.462 145.62 445.973 147.297 446.004 149.203H439.52Z" fill="#FFA500"/>
<path d="M461.805 172.469C459.336 172.469 457.211 171.969 455.43 170.969C453.659 169.958 452.294 168.531 451.336 166.688C450.378 164.833 449.898 162.641 449.898 160.109C449.898 157.641 450.378 155.474 451.336 153.609C452.294 151.745 453.643 150.292 455.383 149.25C457.133 148.208 459.185 147.688 461.539 147.688C463.122 147.688 464.596 147.943 465.961 148.453C467.336 148.953 468.534 149.708 469.555 150.719C470.586 151.729 471.388 153 471.961 154.531C472.534 156.052 472.82 157.833 472.82 159.875V161.703H452.555V157.578H466.555C466.555 156.62 466.346 155.771 465.93 155.031C465.513 154.292 464.935 153.714 464.195 153.297C463.466 152.87 462.617 152.656 461.648 152.656C460.638 152.656 459.742 152.891 458.961 153.359C458.19 153.818 457.586 154.437 457.148 155.219C456.711 155.99 456.487 156.849 456.477 157.797V161.719C456.477 162.906 456.695 163.932 457.133 164.797C457.581 165.661 458.211 166.328 459.023 166.797C459.836 167.266 460.799 167.5 461.914 167.5C462.654 167.5 463.331 167.396 463.945 167.188C464.56 166.979 465.086 166.667 465.523 166.25C465.961 165.833 466.294 165.323 466.523 164.719L472.68 165.125C472.367 166.604 471.727 167.896 470.758 169C469.799 170.094 468.56 170.948 467.039 171.562C465.529 172.167 463.784 172.469 461.805 172.469Z" fill="#FFA500"/>
<path d="M483.82 140V172H477.164V140H483.82Z" fill="#FFA500"/>
<path d="M495.809 140V172H489.152V140H495.809Z" fill="#FFA500"/>
<path d="M512.078 172.469C509.609 172.469 507.484 171.969 505.703 170.969C503.932 169.958 502.568 168.531 501.609 166.688C500.651 164.833 500.172 162.641 500.172 160.109C500.172 157.641 500.651 155.474 501.609 153.609C502.568 151.745 503.917 150.292 505.656 149.25C507.406 148.208 509.458 147.688 511.812 147.688C513.396 147.688 514.87 147.943 516.234 148.453C517.609 148.953 518.807 149.708 519.828 150.719C520.859 151.729 521.661 153 522.234 154.531C522.807 156.052 523.094 157.833 523.094 159.875V161.703H502.828V157.578H516.828C516.828 156.62 516.62 155.771 516.203 155.031C515.786 154.292 515.208 153.714 514.469 153.297C513.74 152.87 512.891 152.656 511.922 152.656C510.911 152.656 510.016 152.891 509.234 153.359C508.464 153.818 507.859 154.437 507.422 155.219C506.984 155.99 506.76 156.849 506.75 157.797V161.719C506.75 162.906 506.969 163.932 507.406 164.797C507.854 165.661 508.484 166.328 509.297 166.797C510.109 167.266 511.073 167.5 512.188 167.5C512.927 167.5 513.604 167.396 514.219 167.188C514.833 166.979 515.359 166.667 515.797 166.25C516.234 165.833 516.568 165.323 516.797 164.719L522.953 165.125C522.641 166.604 522 167.896 521.031 169C520.073 170.094 518.833 170.948 517.312 171.562C515.802 172.167 514.057 172.469 512.078 172.469Z" fill="#FFA500"/>
<path d="M527.438 172V148H533.891V152.188H534.141C534.578 150.698 535.312 149.573 536.344 148.812C537.375 148.042 538.563 147.656 539.906 147.656C540.24 147.656 540.599 147.677 540.984 147.719C541.37 147.76 541.708 147.818 542 147.891V153.797C541.688 153.703 541.255 153.62 540.703 153.547C540.151 153.474 539.646 153.438 539.188 153.438C538.208 153.438 537.333 153.651 536.562 154.078C535.802 154.495 535.198 155.078 534.75 155.828C534.313 156.578 534.094 157.443 534.094 158.422V172H527.438Z" fill="#FFA500"/>
<path d="M565.41 154.844L559.316 155.219C559.212 154.698 558.988 154.229 558.645 153.812C558.301 153.385 557.848 153.047 557.285 152.797C556.733 152.536 556.072 152.406 555.301 152.406C554.27 152.406 553.4 152.625 552.691 153.062C551.983 153.49 551.629 154.062 551.629 154.781C551.629 155.354 551.858 155.839 552.316 156.234C552.775 156.63 553.561 156.948 554.676 157.188L559.02 158.062C561.353 158.542 563.092 159.312 564.238 160.375C565.384 161.438 565.957 162.833 565.957 164.562C565.957 166.135 565.493 167.516 564.566 168.703C563.65 169.891 562.389 170.818 560.785 171.484C559.191 172.141 557.353 172.469 555.27 172.469C552.092 172.469 549.561 171.807 547.676 170.484C545.801 169.151 544.702 167.339 544.379 165.047L550.926 164.703C551.124 165.672 551.603 166.411 552.363 166.922C553.124 167.422 554.098 167.672 555.285 167.672C556.452 167.672 557.389 167.448 558.098 167C558.816 166.542 559.181 165.953 559.191 165.234C559.181 164.63 558.926 164.135 558.426 163.75C557.926 163.354 557.155 163.052 556.113 162.844L551.957 162.016C549.613 161.547 547.868 160.734 546.723 159.578C545.587 158.422 545.02 156.948 545.02 155.156C545.02 153.615 545.436 152.286 546.27 151.172C547.113 150.057 548.296 149.198 549.816 148.594C551.348 147.99 553.139 147.688 555.191 147.688C558.223 147.688 560.608 148.328 562.348 149.609C564.098 150.891 565.118 152.635 565.41 154.844Z" fill="#FFA500"/>
</svg>
