<svg width="601" height="446" viewBox="0 0 601 446" fill="none" xmlns="http://www.w3.org/2000/svg">
<g clip-path="url(#clip0_50_34)">
<path d="M56.8316 442.992H184.052V439.083C184.052 435.689 182.706 432.434 180.309 430.034C177.912 427.634 174.661 426.286 171.271 426.286H69.6123C66.2227 426.286 62.9718 427.634 60.575 430.034C58.1781 432.434 56.8316 435.689 56.8316 439.083V442.992Z" fill="#2F2E41"/>
<path d="M123.417 427.065L119.548 425.505C160.029 324.891 156.129 197.959 121.91 89.0738C117.845 76.4579 117.552 62.9273 121.066 50.1467C124.581 37.3662 131.75 25.8931 141.691 17.139C161.553 -0.608984 188.936 -4.93255 213.158 5.85443C237.066 16.5038 240.361 35.0533 240.361 53.5125H236.19C236.19 33.8082 231.985 18.8119 211.462 9.67069C188.761 -0.438692 163.091 3.61618 144.469 20.2558C135.131 28.4777 128.398 39.2536 125.097 51.2576C121.795 63.2617 122.071 75.9702 125.889 87.8196C160.503 197.962 164.174 325.766 123.417 427.065Z" fill="#2F2E41"/>
<path d="M237.234 115.12C229.171 115.12 222.635 108.575 222.635 100.501C222.635 92.4275 229.171 85.8826 237.234 85.8826C245.297 85.8826 251.833 92.4275 251.833 100.501C251.833 108.575 245.297 115.12 237.234 115.12Z" fill="#919191"/>
<path d="M259.716 125.985V98.2866H255.415V125.985C254.181 126.485 253.16 127.399 252.525 128.57C251.89 129.742 251.682 131.098 251.936 132.406C252.191 133.714 252.891 134.893 253.918 135.74C254.945 136.588 256.235 137.051 257.566 137.051C258.897 137.051 260.186 136.588 261.213 135.74C262.24 134.893 262.941 133.714 263.195 132.406C263.449 131.098 263.241 129.742 262.607 128.57C261.972 127.399 260.95 126.485 259.716 125.985Z" fill="#2F2E41"/>
<path d="M280.51 77.0066C280.503 70.6393 277.974 64.5349 273.477 60.0325C268.981 55.5302 262.885 52.9976 256.526 52.9904H216.9C210.539 52.9904 204.438 55.5206 199.94 60.0245C195.442 64.5284 192.915 70.6371 192.915 77.0066C192.915 83.376 195.442 89.4847 199.94 93.9886C204.438 98.4925 210.539 101.023 216.9 101.023H256.526C262.885 101.016 268.981 98.4829 273.477 93.9806C277.974 89.4782 280.503 83.3738 280.51 77.0066Z" fill="#5685D1"/>
<path d="M336.341 225.73C332.362 174.761 312.02 150.476 325.046 135.247C337.522 120.66 372.667 123.673 395.238 137.671C456.116 175.426 478.419 325.904 400.079 399.424C325.635 469.287 184.55 446.912 153.196 389.73C145.88 376.388 140.069 352.998 150.776 338.833C177.358 303.666 274.007 367.364 316.978 327.523C342.444 303.912 338.524 253.702 336.341 225.73Z" fill="#3F3D56"/>
<path d="M289.804 200.409C291.283 201.09 292.438 202.322 293.023 203.843C293.609 205.363 293.578 207.053 292.939 208.551C292.804 208.854 292.645 209.145 292.462 209.421L305.529 226.891L299.008 236.65L283.692 210.78C282.607 209.932 281.833 208.749 281.49 207.415C281.147 206.08 281.255 204.669 281.797 203.403C282.112 202.685 282.565 202.037 283.131 201.494C283.696 200.952 284.363 200.526 285.093 200.242C285.823 199.958 286.601 199.82 287.384 199.837C288.167 199.854 288.939 200.025 289.655 200.341C289.705 200.363 289.755 200.386 289.804 200.409Z" fill="#FFB6B6"/>
<path d="M289.816 230.53C288.96 231.289 291.332 232.227 293.841 230.748C294.56 230.32 294.866 230.142 294.947 230.255C295.149 230.538 293.971 232.622 294.285 237.251C294.479 240.014 299.062 245.209 304.265 250.275C311.301 257.125 319.482 263.734 319.482 263.734L322.354 261.431L352.472 237.251L357.555 230.207C357.09 227.425 356.391 224.687 355.465 222.023C354.191 218.335 352.676 214.735 350.931 211.246C349.995 209.347 349.035 207.538 348.115 205.873L331.979 223.679L318.457 238.593C318.457 238.593 314.52 232.243 311.47 230.514C311.081 230.265 310.639 230.113 310.179 230.07C307.097 229.924 306.912 228.244 310.486 224.584C314.06 220.924 309.55 224.342 306.371 223.356C303.192 222.37 306.371 223.356 305.702 220.892C305.032 218.428 296.117 213.484 296.117 213.484L295.746 213.815L289.009 219.769L287.08 221.474C287.08 221.474 289.186 227.258 289.767 228.478C290.348 229.698 290.663 229.762 289.816 230.53Z" fill="#5685D1"/>
<path d="M112.225 342.756L111.897 333.845L146.066 328.337L146.551 341.488L112.225 342.756Z" fill="#FFB6B6"/>
<path d="M118.427 345.44L118.751 331.172L112.66 331.397L102.826 318.207C102.34 317.555 101.659 317.076 100.882 316.839C100.106 316.603 99.2738 316.621 98.5081 316.892C97.7424 317.162 97.0831 317.67 96.6264 318.342C96.1697 319.015 95.9396 319.815 95.9695 320.628L96.5941 337.577L102.727 340.276L96.7438 341.639L96.9793 348.03L118.427 345.44Z" fill="#2F2E41"/>
<path d="M304.534 346.226L196.307 348.974C196.307 348.974 149.571 351.677 138.605 344.534L127.042 343.072L126.415 326.064C126.415 326.064 133.486 326.116 137.552 324.219C141.617 322.323 138.792 320.002 142.668 322.284C146.544 324.566 146.134 324.84 149.131 323.792C152.128 322.743 289.556 301.768 289.556 301.768L304.534 346.226Z" fill="#2F2E41"/>
<path d="M161.919 338.845L155.625 332.536L176.933 305.227L186.221 314.539L161.919 338.845Z" fill="#FFB6B6"/>
<path d="M168.287 333.357L158.834 322.676L154.521 326.99L138.353 324.018C137.554 323.871 136.73 323.983 136 324.339C135.269 324.694 134.672 325.274 134.294 325.994C133.917 326.714 133.778 327.535 133.9 328.339C134.022 329.143 134.397 329.887 134.971 330.462L146.941 342.462L153.27 340.263L149.81 345.338L154.323 349.862L168.287 333.357Z" fill="#2F2E41"/>
<path d="M347.233 286.875L346.157 311.919C344.89 341.402 312.465 359.246 287.322 343.852C286.859 343.569 286.394 343.275 285.927 342.971C285.927 342.971 276.396 340.407 276.685 336.348C276.974 332.289 274.646 330.313 272.585 331.42C270.524 332.527 243.543 294.185 243.543 294.185C243.543 294.185 187.485 322.185 175.118 328.776C175.118 328.776 163.491 310.572 164.334 310.763C165.177 310.954 233.684 262.941 233.684 262.941C233.684 262.941 244.845 251.63 258.69 259.098C258.978 260.195 258.731 260.233 258.731 260.233L304.465 297.548L310.927 285.26L347.233 286.875Z" fill="#2F2E41"/>
<path d="M304.112 255.567C304.199 256.723 304.363 257.873 304.604 259.008C304.933 260.651 305.464 262.246 306.185 263.758C306.185 263.758 306.185 265.447 309.413 271.102C312.64 276.757 308.606 274.334 306.185 278.535C303.765 282.727 306.185 280.797 308.872 283.495C309.645 284.28 310.195 285.259 310.463 286.328C310.731 287.398 310.708 288.52 310.397 289.578C310.397 289.578 345.057 289.603 351.512 287.179C357.966 284.755 359.434 271.102 353.65 269.753C347.873 268.404 355.4 267.063 358.797 263.952C362.194 260.842 355.4 255.752 355.4 255.752C355.4 255.752 358.2 250.913 357.966 234.667C357.933 233.172 357.796 231.682 357.555 230.207C357.089 227.425 356.39 224.688 355.465 222.023C354.191 218.336 352.676 214.735 350.931 211.246C349.995 209.348 349.035 207.538 348.115 205.874C347.97 205.615 347.833 205.365 347.687 205.114C345.937 202.012 344.339 199.475 343.282 197.852C342.467 196.591 341.975 195.88 341.975 195.88L336.102 185.653L316.496 194.854L317.61 209.905L314.229 221.256L312.672 226.483L311.47 230.514L309.614 236.759C309.614 236.759 310.123 236.783 309.517 237.615C306.731 241.325 304.924 245.68 304.265 250.275C304.033 252.029 303.981 253.802 304.112 255.567Z" fill="#5685D1"/>
<path d="M247.494 257.189L247.862 257.07L294.787 241.939L277.495 185.135C277.151 184.004 276.555 182.966 275.752 182.099C274.948 181.232 273.959 180.559 272.858 180.131C271.758 179.703 270.574 179.53 269.397 179.626C268.22 179.722 267.08 180.085 266.063 180.686L236.077 198.427C233.703 199.829 231.897 202.023 230.975 204.623C230.052 207.224 230.071 210.067 231.029 212.655L247.494 257.189Z" fill="#2F2E41"/>
<path d="M247.304 260.8L294.606 245.547L277.315 188.744C276.971 187.613 276.374 186.574 275.571 185.708C274.768 184.841 273.778 184.168 272.678 183.739C271.577 183.311 270.393 183.139 269.216 183.235C268.039 183.331 266.9 183.694 265.883 184.295L234.465 200.002C229.744 202.794 229.855 210.019 232.047 215.948L247.304 260.8Z" fill="#5685D1"/>
<path d="M252.038 264.911C253.128 265.526 254.333 265.908 255.577 266.032C256.822 266.156 258.079 266.019 259.267 265.63L289.502 255.881C291.822 255.122 293.753 253.485 294.884 251.32C296.014 249.154 296.254 246.632 295.553 244.291L280.394 194.496C280.092 193.501 279.593 192.577 278.929 191.777C278.265 190.978 277.448 190.319 276.526 189.84C275.604 189.361 274.596 189.071 273.561 188.987C272.525 188.903 271.484 189.027 270.497 189.352L239.165 199.653C237.672 200.144 236.293 200.929 235.108 201.963C233.923 202.996 232.957 204.257 232.267 205.671C231.577 207.084 231.178 208.622 231.091 210.193C231.005 211.764 231.233 213.336 231.764 214.817L247.971 260.062C248.699 262.116 250.143 263.838 252.038 264.911Z" fill="#3F3D56"/>
<path d="M317.605 185.827C305.645 185.827 295.949 176.119 295.949 164.143C295.949 152.167 305.645 142.459 317.605 142.459C329.565 142.459 339.26 152.167 339.26 164.143C339.26 176.119 329.565 185.827 317.605 185.827Z" fill="#FFB6B6"/>
<path d="M390.833 186.154C388.846 190.011 385.587 193.061 381.61 194.787C380.023 195.511 378.354 196.04 376.64 196.362C376.156 194.438 375.38 192.6 374.34 190.91C374.687 192.814 374.687 194.765 374.34 196.669C371.729 196.883 369.102 196.556 366.622 195.71C364.186 194.88 361.977 193.494 360.17 191.661C358.363 189.827 357.007 187.597 356.21 185.148C354.485 179.4 356.343 173.261 356.49 167.261C356.641 161.261 353.795 154.085 347.847 153.342C343.316 152.776 343.877 153.216 340.621 156.42C345.175 161.485 334.075 183.917 328.118 182.926C324.751 182.366 322.273 179.688 321.607 179.781C318.196 188.145 328.455 200.006 320.318 203.9L320.922 203.1C325.181 196.055 312.579 184.155 316.838 177.11C318.025 175.139 319.26 172.828 318.525 170.648C317.828 168.575 314.297 167.918 313.552 169.805C314.763 165.481 311.382 160.405 306.892 159.964C302.903 159.569 303.133 160.708 299.329 161.747C298.843 160.106 298.143 158.537 297.246 157.08C297.55 158.742 297.587 160.442 297.357 162.116C295.985 162.28 294.598 161.986 293.41 161.279C289.898 159.171 289.793 153.729 292.206 150.416C294.623 147.103 298.672 145.468 302.578 144.23C302.614 135.958 324.842 131.998 328.93 139.689C329.351 133.462 336.479 129.267 342.62 130.325C348.76 131.383 353.605 136.313 356.558 141.809C359.511 147.3 360.977 153.449 363.139 159.298C365.301 165.147 368.391 170.979 373.568 174.449C378.744 177.915 386.436 178.23 390.758 173.738C391.743 175.656 392.264 177.78 392.277 179.937C392.29 182.094 391.795 184.224 390.833 186.154Z" fill="#2F2E41"/>
<path d="M368.613 285.314C368.165 284.955 367.678 284.647 367.163 284.395C358.874 280.264 333.098 269.542 312.943 269.982C274.164 270.828 224.811 313.684 236.297 342.463C245.037 364.361 288.487 376.82 320.204 366.856C364.638 352.896 382.176 296.143 368.613 285.314Z" fill="#3F3D56"/>
<path d="M529.604 443.075C542.276 440.682 553.493 383.518 528.562 355.364C520.02 345.718 509.365 341.52 495.192 337.613C413.618 315.125 351.4 336.557 343.039 341.79C334.697 347.011 320.072 425.675 338.773 436.81C349.296 443.075 370.152 446.208 380.485 438.899C395.69 428.144 370.168 400.247 381.528 381.469C394.418 360.16 462.298 352.982 496.329 374.159C532.638 396.753 457.746 456.65 529.604 443.075Z" fill="#2F2E41"/>
<path d="M444.883 345.884H493.294C505.244 334.416 513.789 323.363 506.948 314.189C506.948 311.551 505.902 309.022 504.039 307.157C502.177 305.293 499.651 304.245 497.018 304.245H441.159C438.526 304.245 436 305.293 434.138 307.157C432.275 309.022 431.229 311.551 431.229 314.189C428.624 324.642 433.278 335.209 444.883 345.884Z" fill="#562516"/>
<path d="M453.577 291.727C454.036 291.748 454.491 291.628 454.88 291.381C455.268 291.135 455.572 290.775 455.749 290.35C455.926 289.925 455.969 289.456 455.871 289.006C455.774 288.557 455.54 288.148 455.202 287.835L455.049 287.223C455.069 287.174 455.089 287.125 455.11 287.077C455.573 285.982 456.348 285.049 457.339 284.394C458.329 283.74 459.491 283.393 460.678 283.397C461.865 283.402 463.024 283.757 464.01 284.419C464.995 285.081 465.764 286.02 466.218 287.118C468.035 291.5 470.349 295.889 470.918 300.522C471.169 302.57 471.063 304.646 470.605 306.657C474.873 297.336 477.089 287.205 477.103 276.951C477.104 274.378 476.961 271.807 476.675 269.25C476.439 267.154 476.111 265.072 475.692 263.006C473.405 251.794 468.494 241.284 461.363 232.341C457.912 230.456 455.121 227.556 453.366 224.033C452.73 222.766 452.281 221.415 452.032 220.019C452.421 220.07 453.5 214.133 453.206 213.769C453.749 212.944 454.72 212.535 455.313 211.73C458.26 207.729 462.32 208.428 464.44 213.865C468.968 216.153 469.012 219.948 466.233 223.598C464.466 225.921 464.223 229.063 462.672 231.549C462.831 231.753 462.997 231.951 463.157 232.156C466.074 235.912 468.616 239.945 470.747 244.197C470.229 239.433 470.847 234.614 472.552 230.136C474.28 225.963 477.518 222.449 480.369 218.841C483.794 214.508 490.818 216.399 491.421 221.892C491.427 221.945 491.433 221.999 491.438 222.052C491.015 222.291 490.6 222.545 490.194 222.813C489.685 223.154 489.29 223.642 489.061 224.211C488.833 224.781 488.782 225.406 488.914 226.005C489.047 226.604 489.357 227.149 489.804 227.569C490.252 227.988 490.815 228.263 491.421 228.356L491.483 228.366C491.332 229.895 491.065 231.409 490.685 232.897C494.343 247.063 486.445 252.222 475.169 252.454C474.92 252.582 474.677 252.71 474.428 252.831C476.57 258.907 477.913 265.237 478.424 271.659C478.713 275.449 478.696 279.255 478.373 283.042L478.392 282.908C479.209 278.697 481.452 274.898 484.743 272.152C489.63 268.132 496.535 266.651 501.807 263.42C502.367 263.06 503.019 262.867 503.685 262.866C504.351 262.864 505.003 263.053 505.565 263.411C506.127 263.768 506.576 264.279 506.857 264.883C507.139 265.488 507.242 266.16 507.154 266.821C507.147 266.868 507.14 266.915 507.133 266.962C506.347 267.283 505.582 267.652 504.842 268.068C504.418 268.307 504.003 268.561 503.598 268.829C503.088 269.17 502.693 269.658 502.465 270.227C502.237 270.797 502.185 271.422 502.318 272.021C502.45 272.62 502.761 273.165 503.208 273.585C503.655 274.004 504.218 274.279 504.824 274.373L504.886 274.382C504.931 274.388 504.969 274.395 505.014 274.401C503.671 277.612 501.786 280.567 499.442 283.138C497.155 295.504 487.331 296.677 476.822 293.076H476.816C475.663 298.093 473.992 302.977 471.831 307.648H454.023C453.959 307.45 453.902 307.245 453.845 307.047C455.493 307.151 457.148 307.052 458.772 306.753C457.451 305.13 456.13 303.494 454.808 301.87C454.779 301.84 454.751 301.808 454.725 301.774C454.055 300.944 453.379 300.119 452.708 299.288L452.708 299.287C452.672 296.74 452.965 294.199 453.577 291.727Z" fill="#008F00"/>
<path d="M392.839 343.286C392.544 344.147 391.984 344.892 391.239 345.415C390.494 345.937 389.603 346.21 388.694 346.193L370.935 345.736C370.019 345.718 369.134 345.404 368.411 344.84C367.688 344.277 367.167 343.494 366.925 342.61L364.412 315.7C363.521 316.105 362.55 316.305 361.571 316.285C359.854 316.242 358.224 315.517 357.041 314.271C355.857 313.025 355.216 311.358 355.259 309.639C355.302 307.919 356.026 306.288 357.27 305.102C358.515 303.917 360.179 303.275 361.896 303.318C362.287 303.317 362.678 303.358 363.06 303.44C363.476 302.989 363.982 302.63 364.545 302.387C365.107 302.144 365.715 302.022 366.328 302.028L393.646 302.734C393.872 302.743 394.098 302.771 394.32 302.818C394.919 302.93 395.487 303.169 395.986 303.519C396.485 303.869 396.904 304.322 397.213 304.848C397.523 305.374 397.716 305.96 397.78 306.566C397.845 307.173 397.779 307.787 397.587 308.366L392.839 343.286ZM363.897 313.873L362.109 307.461C361.905 306.72 361.9 305.939 362.095 305.196C362.008 305.195 361.932 305.154 361.845 305.154C360.619 305.129 359.433 305.592 358.547 306.441C357.661 307.29 357.147 308.456 357.119 309.683C357.09 310.911 357.549 312.1 358.394 312.989C359.239 313.879 360.402 314.397 361.628 314.429C362.421 314.454 363.205 314.262 363.897 313.873Z" fill="#CCCCCC"/>
<path d="M394.32 302.818C393.738 306.15 387.194 308.493 379.326 308.086C372.091 307.752 366.175 305.208 365.092 302.193C365.493 302.074 365.91 302.018 366.328 302.028L393.646 302.734C393.873 302.743 394.098 302.771 394.32 302.818Z" fill="white"/>
<path d="M599.18 444.338L1.08245 444.584C0.830203 444.584 0.588301 444.484 0.409933 444.305C0.231565 444.127 0.131349 443.884 0.131349 443.632C0.131349 443.379 0.231565 443.137 0.409933 442.958C0.588301 442.78 0.830203 442.679 1.08245 442.679L599.18 442.433C599.432 442.433 599.674 442.534 599.853 442.712C600.031 442.891 600.131 443.133 600.131 443.386C600.131 443.638 600.031 443.881 599.853 444.059C599.674 444.238 599.432 444.338 599.18 444.338Z" fill="#CACACA"/>
<path d="M263.726 231.491C265.352 231.55 266.891 232.243 268.015 233.421C269.14 234.6 269.76 236.171 269.746 237.801C269.737 238.132 269.702 238.462 269.639 238.787L288.41 249.884L286.138 261.402L262.066 243.417C260.738 243.053 259.569 242.259 258.74 241.159C257.911 240.059 257.469 238.716 257.483 237.338C257.498 236.554 257.668 235.781 257.982 235.062C258.295 234.344 258.747 233.694 259.312 233.151C259.876 232.608 260.542 232.181 261.271 231.895C262.001 231.609 262.779 231.47 263.562 231.485C263.616 231.487 263.671 231.488 263.726 231.491Z" fill="#FFB6B6"/>
<path d="M279.103 257.944C279.606 257.271 279.821 256.989 279.935 257.066C280.229 257.243 279.947 259.623 282.014 263.771C284.924 269.598 315.439 278.522 315.439 278.522L319.196 271.635L335.721 241.369L341.417 217.109C341.616 216.263 341.713 215.396 341.705 214.527C336.626 210.949 331.233 207.84 325.592 205.24C323.338 206.52 321.62 208.571 320.751 211.016L309.376 242.953L304.836 255.705C304.836 255.705 296.829 249.971 293.925 251.024C291.025 252.083 290.201 250.598 292.096 245.845C293.992 241.092 291.147 245.984 287.836 246.295C284.518 246.611 287.836 246.295 286.269 244.278C284.702 242.261 274.571 241.126 274.571 241.126L274.356 241.577L270.429 249.663L269.306 251.987C269.306 251.987 273.468 256.509 274.472 257.41C275.481 258.318 275.793 258.255 275.299 259.289C274.811 260.319 277.359 260.272 279.103 257.944Z" fill="#5685D1"/>
</g>
<defs>
<clipPath id="clip0_50_34">
<rect width="600" height="445.054" fill="white" transform="matrix(-1 0 0 1 600.131 0)"/>
</clipPath>
</defs>
</svg>
