<svg width="545" height="438" viewBox="0 0 545 438" fill="none" xmlns="http://www.w3.org/2000/svg">
<g clip-path="url(#clip0_54_54)">
<path d="M487.289 214.154C487.289 218.089 487.182 221.995 486.969 225.874C486.195 240.376 483.942 254.761 480.245 268.805C480.239 268.811 480.239 268.811 480.245 268.817C479.759 270.675 479.244 272.526 478.7 274.36C478.676 274.449 478.653 274.532 478.623 274.615C477.818 277.366 476.958 280.091 476.042 282.79V282.796C461.656 325.211 434.337 362.056 397.922 388.155C361.508 414.255 317.828 428.297 273.018 428.309C171.665 428.309 86.7557 357.987 64.4645 263.493C60.6538 247.323 58.735 230.766 58.7466 214.154C58.7466 210.853 58.8216 207.57 58.9716 204.305C60.7477 164.383 73.7209 125.765 96.4098 92.8614C96.6821 92.4591 96.9603 92.0568 97.2444 91.6605C135.967 36.2465 200.26 0 273.018 0C375.844 0 461.748 72.3866 482.5 168.957C482.503 168.96 482.505 168.965 482.506 168.969C483.844 175.193 484.905 181.511 485.69 187.923C486.759 196.626 487.293 205.386 487.289 214.154Z" fill="#F2F2F2"/>
<path d="M543.085 393.773C541.485 399.556 538.986 405.051 535.681 410.059C528.294 421.223 517.722 429.759 506.103 436.592C505.298 437.071 504.481 437.539 503.664 438H495.514L495.23 437.349V437.343L494.898 436.592L494.857 436.503L494.839 436.592L494.513 438H490.512C490.181 437.533 489.855 437.065 489.535 436.592C489.068 435.9 488.618 435.202 488.192 434.492C487.44 433.25 486.767 431.962 486.179 430.635C486.108 430.487 486.049 430.339 485.99 430.191L486.256 429.901L485.149 425.062L487.375 424.695L484.936 417.176C485.025 416.898 485.126 416.62 485.232 416.342C486.6 412.881 489.168 410.296 492.217 408.125C495.354 405.883 499.006 404.084 502.362 402.215C503.937 401.333 505.487 400.405 506.997 399.423V399.417C508.926 398.168 510.799 396.833 512.614 395.412C512.645 395.392 512.675 395.37 512.703 395.347C512.728 395.329 512.752 395.309 512.774 395.287C520.911 388.933 527.798 381.124 533.082 372.257L533.084 372.257L533.086 372.255L533.088 372.253L533.088 372.251C533.266 371.967 533.431 371.683 533.597 371.393V371.387C535.761 367.667 537.624 363.78 539.167 359.763V359.757C539.285 359.461 539.392 359.165 539.504 358.869C539.658 359.13 539.806 359.39 539.948 359.65L539.95 359.651L539.952 359.652L539.954 359.654L539.954 359.656C545.696 369.92 546.24 382.284 543.085 393.773Z" fill="#F0F0F0"/>
<path d="M539.954 359.656C540.012 365.134 539.442 370.6 538.255 375.949C537.722 378.396 537.058 380.813 536.267 383.19C534.729 387.839 532.72 392.319 530.271 396.559C530.134 396.79 530.004 397.015 529.862 397.24V397.246C528.815 399.01 527.679 400.72 526.459 402.369C524.611 404.996 522.329 407.288 519.711 409.148C517.572 410.561 515.153 411.495 512.62 411.887C512.146 411.976 511.661 412.041 511.17 412.1C509.21 412.331 507.186 412.42 505.245 412.834C504.261 413.028 503.304 413.336 502.392 413.751C499.266 415.2 497.508 418.235 496.739 421.477C496.603 422.045 496.496 422.619 496.413 423.193C495.768 427.6 496.478 432.179 496.111 436.592C496.07 437.06 496.017 437.533 495.952 438H495.514L495.229 437.349V437.343C495.259 437.095 495.283 436.847 495.306 436.592C495.448 434.424 495.466 432.249 495.36 430.079C495.336 429.103 495.318 428.121 495.33 427.139C495.342 426.352 495.372 425.565 495.431 424.784V424.778C495.472 424.293 495.52 423.814 495.585 423.335C495.773 421.867 496.134 420.428 496.662 419.046C497.177 417.622 497.987 416.323 499.04 415.234C500.093 414.145 501.364 413.291 502.77 412.728C503.63 412.406 504.515 412.158 505.416 411.988C507.399 411.609 509.447 411.515 511.442 411.266C511.655 411.243 511.868 411.213 512.075 411.178C512.342 411.136 512.602 411.089 512.862 411.042C515.472 410.578 517.938 409.511 520.06 407.924C522.583 405.928 524.776 403.548 526.559 400.872C527.53 399.482 528.453 398.062 529.312 396.601C529.312 396.6 529.312 396.599 529.312 396.599C529.312 396.598 529.313 396.597 529.313 396.597C529.314 396.596 529.314 396.596 529.315 396.595C529.316 396.595 529.317 396.595 529.318 396.595C529.359 396.524 529.4 396.459 529.442 396.388L529.448 396.376C533.129 390.088 535.817 383.27 537.415 376.162C537.468 375.901 537.527 375.641 537.586 375.381C538.685 370.248 539.215 365.011 539.167 359.763V359.757C539.167 359.508 539.161 359.266 539.155 359.017C539.143 358.509 539.93 358.396 539.942 358.905C539.948 359.153 539.954 359.402 539.948 359.65C539.949 359.65 539.95 359.65 539.95 359.651C539.951 359.651 539.952 359.651 539.952 359.652C539.953 359.653 539.953 359.653 539.954 359.654C539.954 359.655 539.954 359.655 539.954 359.656Z" fill="white"/>
<path d="M529.524 397.079C531.78 398.224 534.369 398.531 536.83 397.944C539.29 397.357 541.462 395.915 542.957 393.875C543.258 393.462 542.629 392.975 542.328 393.389C540.939 395.291 538.916 396.634 536.623 397.175C534.331 397.717 531.92 397.422 529.826 396.344C529.371 396.11 529.072 396.847 529.524 397.079Z" fill="white"/>
<path d="M512.938 411.277C511.29 406.378 511.55 401.038 513.666 396.322C513.876 395.855 513.14 395.554 512.93 396.02C510.737 400.932 510.478 406.49 512.205 411.584C512.369 412.069 513.102 411.76 512.938 411.277Z" fill="white"/>
<path d="M537.815 375.453C536.85 375.192 535.965 374.695 535.24 374.007C534.514 373.32 533.971 372.463 533.659 371.513C533.5 371.026 532.767 371.336 532.925 371.82C533.275 372.868 533.876 373.813 534.676 374.575C535.475 375.336 536.45 375.89 537.513 376.189C537.611 376.225 537.719 376.223 537.816 376.183C537.912 376.142 537.99 376.067 538.032 375.972C538.072 375.874 538.071 375.765 538.03 375.668C537.99 375.571 537.912 375.493 537.815 375.453Z" fill="white"/>
<path d="M506.997 399.417V399.423C506.813 403.647 506.284 407.849 505.416 411.988V411.994C505.369 412.278 505.304 412.556 505.245 412.834C503.816 419.234 501.813 425.493 499.26 431.534C498.556 433.238 497.818 434.924 497.047 436.592C496.834 437.065 496.614 437.533 496.39 438H495.514L495.229 437.349V437.343L494.898 436.592L494.856 436.503L494.839 436.592L494.513 438H486.049L484.403 436.592L482.006 434.539L485.356 430.883L485.907 430.28L485.99 430.191L486.256 429.901L485.149 425.062L487.375 424.695L484.936 417.176L483.782 413.621L483.492 412.727L481.805 407.527L476.715 408.48L475.886 405.581C477.412 402.046 478.681 398.407 479.686 394.69C479.692 394.66 479.704 394.637 479.709 394.607C482.399 384.596 483.206 374.174 482.089 363.868V363.862C482.053 363.531 482.012 363.194 481.965 362.869V362.857C481.457 358.586 480.602 354.364 479.408 350.232C479.325 349.919 479.23 349.611 479.141 349.303C479.413 349.422 479.68 349.534 479.952 349.652L479.958 349.658H479.97C480.402 349.848 480.834 350.049 481.254 350.262C491.352 355.166 498.781 364.371 503.001 374.984C503.013 375.014 503.025 375.037 503.037 375.067C505.239 380.631 506.551 386.506 506.925 392.477C507.067 394.788 507.091 397.104 506.997 399.417Z" fill="#F0F0F0"/>
<path d="M491.637 438H490.701C490.405 437.521 490.086 437.053 489.766 436.592C489.257 435.876 488.732 435.176 488.192 434.492C487.724 433.9 487.256 433.315 486.789 432.729C486.304 432.12 485.824 431.51 485.356 430.883L485.907 430.28C485.996 430.398 486.084 430.516 486.179 430.635C487.694 432.628 489.334 434.545 490.737 436.592C491.051 437.053 491.353 437.521 491.637 438Z" fill="white"/>
<path d="M478.945 349.634C479.099 349.829 479.259 350.03 479.407 350.231C480.561 351.728 481.652 353.272 482.68 354.864C484.511 357.671 486.137 360.607 487.545 363.649C487.658 363.885 487.77 364.128 487.877 364.37C490.891 371.016 492.856 378.089 493.701 385.336C493.713 385.407 493.719 385.472 493.725 385.543C493.92 387.235 494.046 388.933 494.104 390.637C494.292 393.845 493.975 397.063 493.163 400.173C493.044 400.581 492.914 400.984 492.772 401.374C492.416 402.331 491.97 403.252 491.44 404.125C491.059 404.762 490.636 405.373 490.173 405.953C489.895 406.308 489.605 406.657 489.297 406.994C489.12 407.189 488.936 407.385 488.753 407.58C488.599 407.728 488.451 407.882 488.297 408.029C486.699 409.579 484.935 411.017 483.491 412.727L483.781 413.62C485.172 411.857 486.965 410.396 488.581 408.858C489.596 407.904 490.519 406.859 491.34 405.734C491.446 405.58 491.559 405.427 491.659 405.267C492.208 404.466 492.681 403.616 493.074 402.729C493.275 402.285 493.459 401.83 493.624 401.356C494.591 398.298 495.032 395.097 494.926 391.891C494.907 389.837 494.785 387.786 494.559 385.744C494.536 385.478 494.506 385.218 494.471 384.952C493.87 380.093 492.776 375.308 491.203 370.671C489.213 364.788 486.476 359.186 483.059 354C482.082 352.515 481.046 351.066 479.951 349.652C479.809 349.456 479.661 349.267 479.507 349.072C479.194 348.67 478.631 349.232 478.945 349.634Z" fill="white"/>
<path d="M494.189 385.819C496.68 385.376 498.931 384.063 500.543 382.113C502.154 380.164 503.019 377.706 502.984 375.178C502.982 375.075 502.94 374.977 502.866 374.904C502.793 374.832 502.694 374.79 502.591 374.789C502.488 374.788 502.388 374.827 502.313 374.897C502.238 374.968 502.194 375.065 502.189 375.168C502.225 377.522 501.419 379.812 499.915 381.624C498.411 383.436 496.308 384.651 493.987 385.05C493.482 385.137 493.687 385.906 494.189 385.819Z" fill="white"/>
<path d="M489.499 407.136C485.232 404.216 482.222 399.796 481.071 394.757C480.958 394.258 480.188 394.46 480.302 394.959C481.51 400.2 484.651 404.793 489.098 407.822C489.522 408.111 489.921 407.422 489.499 407.136Z" fill="white"/>
<path d="M487.781 363.563C486.853 363.935 485.847 364.071 484.854 363.958C483.86 363.846 482.91 363.489 482.089 362.919C481.669 362.625 481.271 363.313 481.688 363.605C482.598 364.231 483.648 364.624 484.745 364.751C485.843 364.877 486.954 364.734 487.983 364.332C488.084 364.302 488.169 364.235 488.221 364.145C488.274 364.055 488.29 363.948 488.267 363.846C488.24 363.745 488.173 363.658 488.082 363.605C487.992 363.552 487.883 363.537 487.781 363.563Z" fill="white"/>
<path d="M374.866 92.8639H0.587935C0.430828 92.8605 0.281315 92.7957 0.171424 92.6834C0.0615327 92.5711 0 92.4203 0 92.2633C0 92.1062 0.0615327 91.9554 0.171424 91.8431C0.281315 91.7308 0.430828 91.666 0.587935 91.6626H374.866C375.023 91.666 375.172 91.7308 375.282 91.8431C375.392 91.9554 375.454 92.1062 375.454 92.2633C375.454 92.4203 375.392 92.5711 375.282 92.6834C375.172 92.7957 375.023 92.8605 374.866 92.8639Z" fill="#CACACA"/>
<path d="M13.8201 84.4546C17.3916 84.4546 20.2869 81.4964 20.2869 77.8473C20.2869 74.1982 17.3916 71.24 13.8201 71.24C10.2486 71.24 7.35327 74.1982 7.35327 77.8473C7.35327 81.4964 10.2486 84.4546 13.8201 84.4546Z" fill="#3F3D56"/>
<path d="M36.1599 84.4546C39.7314 84.4546 42.6267 81.4964 42.6267 77.8473C42.6267 74.1982 39.7314 71.24 36.1599 71.24C32.5884 71.24 29.6931 74.1982 29.6931 77.8473C29.6931 81.4964 32.5884 84.4546 36.1599 84.4546Z" fill="#3F3D56"/>
<path d="M58.4998 84.4546C62.0713 84.4546 64.9666 81.4964 64.9666 77.8473C64.9666 74.1982 62.0713 71.24 58.4998 71.24C54.9282 71.24 52.033 74.1982 52.033 77.8473C52.033 81.4964 54.9282 84.4546 58.4998 84.4546Z" fill="#3F3D56"/>
<path d="M361.478 72.8777H345.609C345.295 72.8839 344.995 73.0132 344.775 73.2377C344.555 73.4623 344.431 73.7642 344.431 74.0786C344.431 74.393 344.555 74.6949 344.775 74.9195C344.995 75.144 345.295 75.2733 345.609 75.2795H361.478C361.793 75.2733 362.093 75.144 362.313 74.9195C362.533 74.6949 362.656 74.393 362.656 74.0786C362.656 73.7642 362.533 73.4623 362.313 73.2377C362.093 73.0132 361.793 72.8839 361.478 72.8777Z" fill="#3F3D56"/>
<path d="M361.478 77.3855H345.609C345.295 77.3917 344.995 77.521 344.775 77.7455C344.555 77.9701 344.431 78.272 344.431 78.5864C344.431 78.9009 344.555 79.2028 344.775 79.4273C344.995 79.6518 345.295 79.7811 345.609 79.7873H361.478C361.793 79.7811 362.093 79.6518 362.313 79.4273C362.533 79.2028 362.656 78.9009 362.656 78.5864C362.656 78.272 362.533 77.9701 362.313 77.7455C362.093 77.521 361.793 77.3917 361.478 77.3855Z" fill="#3F3D56"/>
<path d="M361.478 81.8875H345.609C345.295 81.8937 344.995 82.023 344.775 82.2475C344.555 82.472 344.431 82.7739 344.431 83.0884C344.431 83.4028 344.555 83.7047 344.775 83.9292C344.995 84.1538 345.295 84.2831 345.609 84.2893H361.478C361.793 84.2831 362.093 84.1538 362.313 83.9292C362.533 83.7047 362.656 83.4028 362.656 83.0884C362.656 82.7739 362.533 82.472 362.313 82.2475C362.093 82.023 361.793 81.8937 361.478 81.8875Z" fill="#3F3D56"/>
<path d="M98.6473 117.341H81.843C72.3657 135.99 65.694 155.934 62.0437 176.53H98.6473C99.8139 176.532 100.969 176.303 102.047 175.858C103.126 175.413 104.105 174.759 104.93 173.935C105.755 173.111 106.409 172.132 106.854 171.054C107.3 169.977 107.528 168.822 107.526 167.656V126.209C107.523 123.857 106.586 121.603 104.922 119.94C103.257 118.277 101.001 117.343 98.6473 117.341Z" fill="#CCCCCC"/>
<path d="M223.132 117.341H146.994C144.641 117.343 142.385 118.277 140.72 119.94C139.055 121.603 138.119 123.857 138.116 126.209V167.656C138.119 170.008 139.055 172.264 140.719 173.927C142.384 175.591 144.64 176.527 146.994 176.53H223.132C225.485 176.527 227.742 175.591 229.407 173.927C231.071 172.264 232.007 170.008 232.01 167.656V126.209C232.007 123.857 231.07 121.603 229.406 119.94C227.741 118.277 225.485 117.343 223.132 117.341Z" fill="#CCCCCC"/>
<path d="M347.616 117.341H271.479C269.125 117.343 266.869 118.277 265.204 119.94C263.54 121.603 262.603 123.857 262.6 126.209V167.656C262.603 170.008 263.539 172.264 265.204 173.927C266.868 175.591 269.125 176.527 271.479 176.53H347.616C349.97 176.527 352.226 175.591 353.891 173.927C355.555 172.264 356.492 170.008 356.495 167.656V126.209C356.491 123.857 355.555 121.603 353.89 119.94C352.226 118.277 349.969 117.343 347.616 117.341Z" fill="#CCCCCC"/>
<path d="M98.6472 204.304H58.9716C58.8236 207.57 58.7486 210.853 58.7466 214.154C58.735 230.766 60.6538 247.323 64.4645 263.493H98.6472C101.001 263.49 103.258 262.554 104.922 260.89C106.587 259.227 107.523 256.972 107.526 254.619V213.172C107.523 210.82 106.586 208.566 104.922 206.903C103.257 205.241 101 204.306 98.6472 204.304Z" fill="#CCCCCC"/>
<path d="M223.132 204.304H146.994C144.641 204.306 142.385 205.241 140.72 206.903C139.055 208.566 138.119 210.82 138.116 213.172V254.619C138.119 256.972 139.055 259.227 140.719 260.89C142.384 262.554 144.64 263.49 146.994 263.493H223.132C225.485 263.49 227.742 262.554 229.407 260.89C231.071 259.227 232.007 256.972 232.01 254.619V213.172C232.007 210.82 231.07 208.566 229.406 206.903C227.741 205.241 225.485 204.306 223.132 204.304Z" fill="#CCCCCC"/>
<path d="M347.616 204.304H271.479C269.125 204.306 266.869 205.241 265.204 206.903C263.54 208.566 262.603 210.82 262.6 213.172V254.619C262.603 256.972 263.539 259.227 265.204 260.89C266.868 262.554 269.125 263.49 271.479 263.493H347.616C347.859 263.493 348.101 263.481 348.344 263.457C349.295 263.387 350.228 263.157 351.102 262.777C352.688 262.099 354.042 260.974 354.999 259.54C355.957 258.107 356.476 256.425 356.495 254.702V213.172C356.492 210.82 355.555 208.566 353.89 206.903C352.226 205.241 349.969 204.306 347.616 204.304Z" fill="#CCCCCC"/>
<path d="M480.222 265.466L474.708 212.126L473.253 190.173L488.685 187.384C488.685 187.384 490.996 202.476 493.018 211.332C495.013 220.072 490.36 264.295 490.237 265.461C491.37 266.474 492.169 267.807 492.528 269.284C492.887 270.76 492.789 272.311 492.247 273.731C491.705 275.15 490.744 276.372 489.492 277.234C488.24 278.096 486.756 278.558 485.235 278.559C483.715 278.56 482.23 278.099 480.977 277.238C479.725 276.377 478.763 275.156 478.22 273.737C477.676 272.318 477.577 270.767 477.934 269.29C478.292 267.814 479.089 266.48 480.222 265.466Z" fill="#A0616A"/>
<path d="M440.725 424.241L433.072 425.99L422.681 397.318L433.977 394.737L440.725 424.241Z" fill="#A0616A"/>
<path d="M442.108 421.299L440.155 421.742L439.954 421.79L431.022 420.334L430.761 420.293L427.032 424.742C424.485 425.324 422.273 426.894 420.883 429.106C419.493 431.318 419.04 433.992 419.621 436.538L419.633 436.591L419.698 436.852L420.835 436.591L444.375 431.208L442.108 421.299Z" fill="#2F2E41"/>
<path d="M486.351 429.242H478.5L474.765 398.977L486.352 398.977L486.351 429.242Z" fill="#A0616A"/>
<path d="M486.146 426.682L485.46 426.404L477.765 423.275L477.516 423.174L472.893 426.682C471.599 426.682 470.318 426.936 469.123 427.43C467.927 427.925 466.841 428.65 465.926 429.564C465.011 430.478 464.284 431.564 463.789 432.758C463.294 433.953 463.038 435.233 463.038 436.526V436.846L484.708 436.852H488.354V426.682H486.146Z" fill="#2F2E41"/>
<path d="M474.41 267.259L481.013 329.956C481.013 329.956 489.803 392.734 488.153 401.396C486.502 410.058 488.565 411.295 488.565 411.295L473.502 410.223C473.502 410.223 473.915 404.861 471.439 402.386C468.963 399.911 470.201 392.486 470.201 392.486L440.981 290.358L423.235 343.98C423.235 343.98 434.446 387.465 434.033 388.29C433.62 389.115 441.136 407.221 441.136 407.221L424.321 412.794C424.321 412.794 426.384 406.194 423.495 404.132C420.607 402.069 418.13 403.719 420.607 400.007C423.083 396.295 401.097 369.031 401.58 351.461C401.726 346.175 401.901 340.504 402.113 334.694C403.231 303.947 405.342 269.302 409.203 267.259C416.219 263.547 474.41 267.259 474.41 267.259Z" fill="#2F2E41"/>
<path d="M443.138 140.314C452.108 140.314 459.38 133.047 459.38 124.082C459.38 115.117 452.108 107.85 443.138 107.85C434.169 107.85 426.897 115.117 426.897 124.082C426.897 133.047 434.169 140.314 443.138 140.314Z" fill="#A0616A"/>
<path d="M497.367 223.237L475.313 228.832L475.467 222.646L473.793 220.871L470.449 203.362L466.898 158.03L479.084 164.49L479.099 164.501C481.227 166.841 483.007 169.475 484.384 172.322C488.978 181.656 493.391 202.217 495.701 214.159C495.78 214.409 495.934 214.63 496.141 214.792C497.287 215.843 498.034 217.258 498.258 218.796C498.481 220.335 498.167 221.903 497.367 223.237Z" fill="#3F3D56"/>
<path d="M367.042 243.297C367.042 243.297 397.483 211.222 397.767 210.617C399.893 194.479 406.009 187.36 406.926 188.133L422.711 193.598C422.711 193.598 418.016 208.458 414.837 217.285C411.799 225.719 376.79 246.32 376.206 247.337C376.833 248.721 377.025 250.263 376.756 251.759C376.488 253.254 375.771 254.633 374.701 255.713C373.632 256.793 372.259 257.523 370.765 257.806C369.272 258.089 367.727 257.912 366.336 257.299C364.945 256.686 363.773 255.665 362.975 254.371C362.177 253.078 361.791 251.573 361.867 250.055C361.944 248.537 362.48 247.079 363.404 245.872C364.328 244.665 365.597 243.767 367.042 243.297Z" fill="#A0616A"/>
<path d="M430.294 160.949C430.294 160.949 416.627 154.255 411.326 167.403C408.42 174.826 400.988 192.84 397.284 203.929C397.26 204 397.226 204.067 397.184 204.128C396.193 205.599 395.658 207.33 395.647 209.103C395.648 209.232 395.635 209.361 395.607 209.487C395.607 209.487 410.625 212.411 415.092 220.279L416.864 218.358L417.179 217.011L430.294 160.949Z" fill="#3F3D56"/>
<path d="M480.023 274.093C448.57 280.585 406.888 269.423 406.888 269.423L418.007 221.251L414.054 170.837C413.571 164.672 417.084 158.893 422.55 156.845L430.097 154.02L436.335 145.094L454.153 145.679L461.276 155.049L466.898 158.03L479.084 164.49L479.138 164.517V164.543L475.313 201.619L473.007 223.974C473.007 223.974 480.012 249.116 478.575 252.451C477.137 255.78 478.387 254.172 478.735 255.952C479.084 257.731 480.152 257.844 480.312 261.35C480.479 264.851 480.023 274.093 480.023 274.093Z" fill="#3F3D56"/>
<path d="M460.757 118.302C459.473 117.036 461.406 113.686 461.041 111.921C460.622 109.898 458.391 109.839 457.859 107.842C457.287 105.695 454.997 104.526 452.88 103.845C447.454 102.11 441.664 101.845 436.102 103.077C433.64 103.678 431.216 104.424 428.843 105.312C427.205 105.888 428.785 104.32 427.146 104.896C426.526 105.034 425.979 105.397 425.61 105.915C425.316 106.471 425.713 107.362 426.332 107.249C424.332 108.13 422.332 109.012 420.332 109.893C421.454 111.068 422.576 112.242 423.697 113.417C422.103 112.963 420.403 114.863 421.031 116.397C421.284 116.881 421.651 117.296 422.1 117.607C422.55 117.918 423.068 118.115 423.61 118.181C425.412 118.531 424.045 120.245 425.88 120.211C427.715 120.178 440.512 116.418 441.404 118.022C442.039 119.163 441.969 120.675 442.876 121.616C444.037 122.819 446.063 122.379 447.54 121.595C449.017 120.812 450.515 119.736 452.177 119.923C453.912 120.119 455.224 123.323 455.651 125.015C456.078 126.707 455.808 128.487 455.536 130.211C455.179 132.474 451.604 134.738 451.247 137.002C455.215 138.098 459.472 134.609 461.041 128.54C460.884 124.704 463.492 120.998 460.757 118.302Z" fill="#2F2E41"/>
<path d="M351.798 272.208C361.526 272.208 369.412 264.326 369.412 254.603C369.412 244.88 361.526 236.998 351.798 236.998C342.069 236.998 334.183 244.88 334.183 254.603C334.183 264.326 342.069 272.208 351.798 272.208Z" fill="#2F2E41"/>
<path d="M349.394 263.766C349.09 263.766 348.79 263.695 348.518 263.559C348.246 263.423 348.009 263.225 347.827 262.982L343.021 256.578C342.867 256.372 342.755 256.138 342.691 255.889C342.627 255.64 342.613 255.381 342.649 255.126C342.686 254.872 342.772 254.627 342.903 254.405C343.034 254.184 343.208 253.991 343.413 253.837C343.619 253.682 343.854 253.57 344.103 253.506C344.352 253.442 344.611 253.428 344.866 253.465C345.121 253.501 345.366 253.587 345.587 253.718C345.809 253.849 346.002 254.023 346.157 254.228L349.3 258.418L357.375 246.312C357.518 246.098 357.701 245.914 357.915 245.77C358.129 245.627 358.369 245.527 358.622 245.476C358.874 245.426 359.134 245.425 359.387 245.475C359.639 245.525 359.88 245.624 360.094 245.767C360.308 245.91 360.492 246.093 360.635 246.307C360.779 246.521 360.878 246.761 360.928 247.014C360.979 247.266 360.979 247.526 360.929 247.778C360.879 248.031 360.779 248.271 360.636 248.485L351.025 262.894C350.851 263.154 350.617 263.369 350.343 263.521C350.069 263.673 349.762 263.756 349.449 263.765C349.431 263.765 349.413 263.766 349.394 263.766Z" fill="white"/>
<path d="M541.564 437.296C541.564 437.389 541.546 437.48 541.511 437.566C541.476 437.651 541.424 437.729 541.358 437.794C541.293 437.86 541.215 437.912 541.13 437.947C541.044 437.982 540.952 438 540.86 438H374.954C374.767 438 374.588 437.926 374.456 437.794C374.323 437.662 374.249 437.483 374.249 437.296C374.249 437.109 374.323 436.93 374.456 436.798C374.588 436.666 374.767 436.592 374.954 436.592H540.86C540.952 436.592 541.044 436.61 541.13 436.645C541.215 436.68 541.293 436.732 541.358 436.798C541.424 436.863 541.476 436.941 541.511 437.026C541.546 437.112 541.564 437.204 541.564 437.296Z" fill="#CCCCCC"/>
</g>
<defs>
<clipPath id="clip0_54_54">
<rect width="545" height="438" fill="white"/>
</clipPath>
</defs>
</svg>
